<svg xmlns="http://www.w3.org/2000/svg">
    <symbol viewBox="0 0 24 24" id="windows">
        <path fill="currentColor" d="M2,3H11V12H2V3M11,22H2V13H11V22M21,3V12H12V3H21M21,22H12V13H21V22Z" />
    </symbol>
    <symbol viewBox="0 0 24 24" id="linux">
    <path fill="currentColor"
        d="M14.62,8.35C14.2,8.63 12.87,9.39 12.67,9.54C12.28,9.85 11.92,9.83 11.53,9.53C11.33,9.37 10,8.61 9.58,8.34C9.1,8.03 9.13,7.64 9.66,7.42C11.3,6.73 12.94,6.78 14.57,7.45C15.06,7.66 15.08,8.05 14.62,8.35M21.84,15.63C20.91,13.54 19.64,11.64 18,9.97C17.47,9.42 17.14,8.8 16.94,8.09C16.84,7.76 16.77,7.42 16.7,7.08C16.5,6.2 16.41,5.3 16,4.47C15.27,2.89 14,2.07 12.16,2C10.35,2.05 9,2.81 8.21,4.4C8,4.83 7.85,5.28 7.75,5.74C7.58,6.5 7.43,7.29 7.25,8.06C7.1,8.71 6.8,9.27 6.29,9.77C4.68,11.34 3.39,13.14 2.41,15.12C2.27,15.41 2.13,15.7 2.04,16C1.85,16.66 2.33,17.12 3.03,16.96C3.47,16.87 3.91,16.78 4.33,16.65C4.74,16.5 4.9,16.6 5,17C5.65,19.15 7.07,20.66 9.24,21.5C13.36,23.06 18.17,20.84 19.21,16.92C19.28,16.65 19.38,16.55 19.68,16.65C20.14,16.79 20.61,16.89 21.08,17C21.57,17.09 21.93,16.84 22,16.36C22.03,16.1 21.94,15.87 21.84,15.63" />
</symbol>
    <symbol viewBox="0 0 24 24" id="mac">
    <path fill="currentColor"
        d="M18.71,19.5C17.88,20.74 17,21.95 15.66,21.97C14.32,22 13.89,21.18 12.37,21.18C10.84,21.18 10.37,21.95 9.1,22C7.79,22.05 6.8,20.68 5.96,19.47C4.25,17 2.94,12.45 4.7,9.39C5.57,7.87 7.13,6.91 8.82,6.88C10.1,6.86 11.32,7.75 12.11,7.75C12.89,7.75 14.37,6.68 15.92,6.84C16.57,6.87 18.39,7.1 19.56,8.82C19.47,8.88 17.39,10.1 17.41,12.63C17.44,15.65 20.06,16.66 20.09,16.67C20.06,16.74 19.67,18.11 18.71,19.5M13,3.5C13.73,2.67 14.94,2.04 15.94,2C16.07,3.17 15.6,4.35 14.9,5.19C14.21,6.04 13.07,6.7 11.95,6.61C11.8,5.46 12.36,4.26 13,3.5Z" />
</symbol>
    <symbol viewBox="0 0 24 24" id="proton">
    <path fill="currentColor"
        d="M12,2A10,10 0 0,1 22,12A10,10 0 0,1 12,22C7.4,22 3.55,18.92 2.36,14.73L6.19,16.31C6.45,17.6 7.6,18.58 8.97,18.58C10.53,18.58 11.8,17.31 11.8,15.75V15.62L15.2,13.19H15.28C17.36,13.19 19.05,11.5 19.05,9.42C19.05,7.34 17.36,5.65 15.28,5.65C13.2,5.65 11.5,7.34 11.5,9.42V9.47L9.13,12.93L8.97,12.92C8.38,12.92 7.83,13.1 7.38,13.41L2,11.2C2.43,6.05 6.73,2 12,2M8.28,17.17C9.08,17.5 10,17.13 10.33,16.33C10.66,15.53 10.28,14.62 9.5,14.29L8.22,13.76C8.71,13.58 9.26,13.57 9.78,13.79C10.31,14 10.72,14.41 10.93,14.94C11.15,15.46 11.15,16.04 10.93,16.56C10.5,17.64 9.23,18.16 8.15,17.71C7.65,17.5 7.27,17.12 7.06,16.67L8.28,17.17M17.8,9.42C17.8,10.81 16.67,11.94 15.28,11.94C13.9,11.94 12.77,10.81 12.77,9.42A2.5,2.5 0 0,1 15.28,6.91C16.67,6.91 17.8,8.04 17.8,9.42M13.4,9.42C13.4,10.46 14.24,11.31 15.29,11.31C16.33,11.31 17.17,10.46 17.17,9.42C17.17,8.38 16.33,7.53 15.29,7.53C14.24,7.53 13.4,8.38 13.4,9.42Z" />
</symbol>
    <symbol viewBox="0 0 24 24" id="amd">
    <path fill="currentColor" d="m 1.9882482,1.8157238 5.5456817,5.5492389 h 9.0922141 v 9.0957713 l 5.552796,5.549239 V 1.8157238 Z M 7.5268155,8.4783676 1.8210596,14.180566 v 8.00371 H 9.8105407 L 15.516297,16.467849 H 7.5268155 Z"/>
</symbol>
    <symbol viewBox="0 0 24 24" id="nvidia">
    <path fill="currentColor" d="M8.948 8.798v-1.43a6.7 6.7 0 0 1 .424-.018c3.922-.124 6.493 3.374 6.493 3.374s-2.774 3.851-5.75 3.851c-.398 0-.787-.062-1.158-.185v-4.346c1.528.185 1.837.857 2.747 2.385l2.04-1.714s-1.492-1.952-4-1.952a6.016 6.016 0 0 0-.796.035m0-4.735v2.138l.424-.027c5.45-.185 9.01 4.47 9.01 4.47s-4.08 4.964-8.33 4.964c-.37 0-.733-.035-1.095-.097v1.325c.3.035.61.062.91.062 3.957 0 6.82-2.023 9.593-4.408.459.371 2.34 1.263 2.73 1.652-2.633 2.208-8.772 3.984-12.253 3.984-.335 0-.653-.018-.971-.053v1.864H24V4.063zm0 10.326v1.131c-3.657-.654-4.673-4.46-4.673-4.46s1.758-1.944 4.673-2.262v1.237H8.94c-1.528-.186-2.73 1.245-2.73 1.245s.68 2.412 2.739 3.11M2.456 10.9s2.164-3.197 6.5-3.533V6.201C4.153 6.59 0 10.653 0 10.653s2.35 6.802 8.948 7.42v-1.237c-4.84-.6-6.492-5.936-6.492-5.936z"/>
</symbol>
    <symbol viewBox="0 0 24 24" id="intel">
    <path fill="currentColor" d="M7.07 10.8v3.877H5.837V9.804l2.547.002c1.08 0 1.449.764 1.449 1.456v3.415h-1.23v-3.408c0-.291-.149-.469-.513-.469H7.07zm8.389-.058c-.422 0-.748.216-.885.51-.077.167-.117.347-.118.53h1.898c-.023-.53-.263-1.04-.895-1.04zm-1.003 1.88c0 .629.393 1.095 1.094 1.095.544 0 .815-.15 1.131-.466l.762.729c-.487.481-1.001.773-1.902.773-1.18 0-2.31-.643-2.31-2.52 0-1.605.985-2.512 2.281-2.512 1.315 0 2.075 1.063 2.075 2.455v.443h-3.131v.003zm-2.268 2.047c-1.004 0-1.432-.699-1.432-1.391v-4.8h1.232v1.327h.928v.996h-.929v2.4c0 .284.135.44.429.44h.5v1.027h-.728zM4.739 9.131H3.497v-1.18h1.242v1.18zm.003 5.595c-.93-.088-1.246-.651-1.246-1.305V9.806H4.74v4.924l.002-.004zm14.805-.104c-.929-.09-1.243-.652-1.243-1.303V7.784h1.243v6.84-.002zm4.347-6.038C22.769 3.091 12.102 2.743 5.23 6.927v.462c6.865-3.528 16.604-3.508 17.491 1.55.296 1.675-.646 3.418-2.329 4.422v1.311c2.025-.742 4.105-3.147 3.502-6.088zm-12.496 9.61c-4.742.438-9.686-.251-10.377-3.957-.337-1.827.497-3.765 1.598-4.967v-.643C.632 10.37-.446 12.577.175 15.184c.792 3.345 5.035 5.239 11.509 4.609 2.563-.249 5.916-1.074 8.247-2.354v-1.816c-2.116 1.261-5.617 2.302-8.533 2.571zM20.984 8.15c0-.06-.037-.079-.116-.079h-.077v.17l.077.002c.079 0 .116-.025.116-.084V8.15zm.12.423h-.091c-.009 0-.018-.004-.021-.012l-.125-.213c-.003-.005-.013-.01-.019-.01h-.056v.212c0 .012-.009.025-.023.025h-.082c-.011 0-.021-.014-.021-.025v-.533c0-.029.012-.045.038-.048.05-.005.101-.006.152-.006.152 0 .246.046.246.188v.01c0 .09-.046.135-.114.158l.13.219c0 .006.005.012.005.018.002.007-.004.017-.019.017v.002-.002zm-.218-.709c-.226 0-.408.184-.408.41.001.227.186.409.411.408.225 0 .406-.182.409-.406-.002-.226-.185-.411-.412-.412zm0 .907c-.273 0-.495-.222-.495-.495s.222-.495.494-.495h.001c.271 0 .495.224.495.495 0 .274-.224.495-.495.495z"/>
</symbol>
</svg>