<svg xmlns="http://www.w3.org/2000/svg"><symbol viewBox="0 0 24 24" id="windows">
        <path fill="currentColor" d="M2,3H11V12H2V3M11,22H2V13H11V22M21,3V12H12V3H21M21,22H12V13H21V22Z" />
    </symbol><symbol viewBox="0 0 24 24" id="linux">
    <path fill="currentColor"
        d="M14.62,8.35C14.2,8.63 12.87,9.39 12.67,9.54C12.28,9.85 11.92,9.83 11.53,9.53C11.33,9.37 10,8.61 9.58,8.34C9.1,8.03 9.13,7.64 9.66,7.42C11.3,6.73 12.94,6.78 14.57,7.45C15.06,7.66 15.08,8.05 14.62,8.35M21.84,15.63C20.91,13.54 19.64,11.64 18,9.97C17.47,9.42 17.14,8.8 16.94,8.09C16.84,7.76 16.77,7.42 16.7,7.08C16.5,6.2 16.41,5.3 16,4.47C15.27,2.89 14,2.07 12.16,2C10.35,2.05 9,2.81 8.21,4.4C8,4.83 7.85,5.28 7.75,5.74C7.58,6.5 7.43,7.29 7.25,8.06C7.1,8.71 6.8,9.27 6.29,9.77C4.68,11.34 3.39,13.14 2.41,15.12C2.27,15.41 2.13,15.7 2.04,16C1.85,16.66 2.33,17.12 3.03,16.96C3.47,16.87 3.91,16.78 4.33,16.65C4.74,16.5 4.9,16.6 5,17C5.65,19.15 7.07,20.66 9.24,21.5C13.36,23.06 18.17,20.84 19.21,16.92C19.28,16.65 19.38,16.55 19.68,16.65C20.14,16.79 20.61,16.89 21.08,17C21.57,17.09 21.93,16.84 22,16.36C22.03,16.1 21.94,15.87 21.84,15.63" />
</symbol><symbol viewBox="0 0 24 24" id="mac">
    <path fill="currentColor"
        d="M18.71,19.5C17.88,20.74 17,21.95 15.66,21.97C14.32,22 13.89,21.18 12.37,21.18C10.84,21.18 10.37,21.95 9.1,22C7.79,22.05 6.8,20.68 5.96,19.47C4.25,17 2.94,12.45 4.7,9.39C5.57,7.87 7.13,6.91 8.82,6.88C10.1,6.86 11.32,7.75 12.11,7.75C12.89,7.75 14.37,6.68 15.92,6.84C16.57,6.87 18.39,7.1 19.56,8.82C19.47,8.88 17.39,10.1 17.41,12.63C17.44,15.65 20.06,16.66 20.09,16.67C20.06,16.74 19.67,18.11 18.71,19.5M13,3.5C13.73,2.67 14.94,2.04 15.94,2C16.07,3.17 15.6,4.35 14.9,5.19C14.21,6.04 13.07,6.7 11.95,6.61C11.8,5.46 12.36,4.26 13,3.5Z" />
</symbol><symbol viewBox="0 0 24 24" id="proton">
    <path fill="currentColor"
        d="M12,2A10,10 0 0,1 22,12A10,10 0 0,1 12,22C7.4,22 3.55,18.92 2.36,14.73L6.19,16.31C6.45,17.6 7.6,18.58 8.97,18.58C10.53,18.58 11.8,17.31 11.8,15.75V15.62L15.2,13.19H15.28C17.36,13.19 19.05,11.5 19.05,9.42C19.05,7.34 17.36,5.65 15.28,5.65C13.2,5.65 11.5,7.34 11.5,9.42V9.47L9.13,12.93L8.97,12.92C8.38,12.92 7.83,13.1 7.38,13.41L2,11.2C2.43,6.05 6.73,2 12,2M8.28,17.17C9.08,17.5 10,17.13 10.33,16.33C10.66,15.53 10.28,14.62 9.5,14.29L8.22,13.76C8.71,13.58 9.26,13.57 9.78,13.79C10.31,14 10.72,14.41 10.93,14.94C11.15,15.46 11.15,16.04 10.93,16.56C10.5,17.64 9.23,18.16 8.15,17.71C7.65,17.5 7.27,17.12 7.06,16.67L8.28,17.17M17.8,9.42C17.8,10.81 16.67,11.94 15.28,11.94C13.9,11.94 12.77,10.81 12.77,9.42A2.5,2.5 0 0,1 15.28,6.91C16.67,6.91 17.8,8.04 17.8,9.42M13.4,9.42C13.4,10.46 14.24,11.31 15.29,11.31C16.33,11.31 17.17,10.46 17.17,9.42C17.17,8.38 16.33,7.53 15.29,7.53C14.24,7.53 13.4,8.38 13.4,9.42Z" />
</symbol><symbol viewBox="0 0 24 24" id="amd">
    <path fill="currentColor" d="m 1.9882482,1.8157238 5.5456817,5.5492389 h 9.0922141 v 9.0957713 l 5.552796,5.549239 V 1.8157238 Z M 7.5268155,8.4783676 1.8210596,14.180566 v 8.00371 H 9.8105407 L 15.516297,16.467849 H 7.5268155 Z"/>
</symbol><symbol viewBox="0 0 24 24" id="nvidia">
    <path fill="currentColor" d="M8.948 8.798v-1.43a6.7 6.7 0 0 1 .424-.018c3.922-.124 6.493 3.374 6.493 3.374s-2.774 3.851-5.75 3.851c-.398 0-.787-.062-1.158-.185v-4.346c1.528.185 1.837.857 2.747 2.385l2.04-1.714s-1.492-1.952-4-1.952a6.016 6.016 0 0 0-.796.035m0-4.735v2.138l.424-.027c5.45-.185 9.01 4.47 9.01 4.47s-4.08 4.964-8.33 4.964c-.37 0-.733-.035-1.095-.097v1.325c.3.035.61.062.91.062 3.957 0 6.82-2.023 9.593-4.408.459.371 2.34 1.263 2.73 1.652-2.633 2.208-8.772 3.984-12.253 3.984-.335 0-.653-.018-.971-.053v1.864H24V4.063zm0 10.326v1.131c-3.657-.654-4.673-4.46-4.673-4.46s1.758-1.944 4.673-2.262v1.237H8.94c-1.528-.186-2.73 1.245-2.73 1.245s.68 2.412 2.739 3.11M2.456 10.9s2.164-3.197 6.5-3.533V6.201C4.153 6.59 0 10.653 0 10.653s2.35 6.802 8.948 7.42v-1.237c-4.84-.6-6.492-5.936-6.492-5.936z"/>
</symbol><symbol viewBox="0 0 24 24" id="intel">
    <path fill="currentColor" d="M20.42 7.345v9.18h1.651v-9.18zM0 7.475v1.737h1.737V7.474zm9.78.352v6.053c0 .513.044.945.13 1.292.087.34.235.618.44.828.203.21.475.359.803.451.334.093.754.136 1.255.136h.216v-1.533c-.24 0-.445-.012-.593-.037a.672.672 0 0 1-.39-.173.693.693 0 0 1-.173-.377 4.002 4.002 0 0 1-.037-.606v-2.182h1.193v-1.416h-1.193V7.827zm-3.505 2.312c-.396 0-.76.08-1.082.241-.327.161-.6.384-.822.668l-.087.117v-.902H2.658v6.256h1.639v-3.214c.018-.588.16-1.02.433-1.299.29-.297.642-.445 1.044-.445.476 0 .841.149 1.082.433.235.284.359.686.359 1.2v3.324h1.663V12.97c.006-.89-.229-1.595-.686-2.09-.458-.495-1.1-.742-1.917-.742zm10.065.006a3.252 3.252 0 0 0-2.306.946c-.29.29-.525.637-.692 1.033a3.145 3.145 0 0 0-.254 1.273c0 .452.08.878.241 1.274.161.395.39.742.674 1.032.284.29.637.526 1.045.693.408.173.86.26 1.342.26 1.397 0 2.262-.637 2.782-1.23l-1.187-.904c-.248.297-.841.699-1.583.699-.464 0-.847-.105-1.138-.321a1.588 1.588 0 0 1-.593-.872l-.019-.056h4.915v-.587c0-.451-.08-.872-.235-1.267a3.393 3.393 0 0 0-.661-1.033 3.013 3.013 0 0 0-1.02-.692 3.345 3.345 0 0 0-1.311-.248zm-16.297.118v6.256h1.651v-6.256zm16.278 1.286c1.132 0 1.664.797 1.664 1.255l-3.32.006c0-.458.525-1.255 1.656-1.261zm7.073 3.814a.606.606 0 0 0-.606.606.606.606 0 0 0 .606.606.606.606 0 0 0 .606-.606.606.606 0 0 0-.606-.606zm-.008.105a.5.5 0 0 1 .002 0 .5.5 0 0 1 .5.501.5.5 0 0 1-.5.5.5.5 0 0 1-.5-.5.5.5 0 0 1 .498-.5zm-.233.155v.699h.13v-.285h.093l.173.285h.136l-.18-.297a.191.191 0 0 0 .118-.056c.03-.03.05-.074.05-.136 0-.068-.02-.117-.063-.154-.037-.038-.105-.056-.185-.056zm.13.099h.154c.019 0 .037.006.056.012a.064.064 0 0 1 .037.031c.013.013.012.031.012.056a.124.124 0 0 1-.012.055.164.164 0 0 1-.037.031c-.019.006-.037.013-.056.013h-.154Z"/>
</symbol>
</svg>